<svg width="500.000000" height="90.000000" viewBox="0 0 500 90" fill="none" xmlns="http://www.w3.org/2000/svg" xmlns:xlink="http://www.w3.org/1999/xlink">
	<desc>
			Created with Pixso.
	</desc>
	<defs>
		<clipPath id="clip3_231">
			<rect id="sfera_logo-1" width="500.000000" height="90.000000" fill="white" fill-opacity="0"/>
		</clipPath>
	</defs>
	<g clip-path="url(#clip3_231)">
		<path id="polygon" d="M28.78 38.59L12.08 38.59L12.08 54.73L21.6 54.73L28.78 38.59Z" fill="#414042" fill-opacity="1.000000" fill-rule="nonzero"/>
		<path id="polygon" d="M19.22 59.79L12.29 59.79L12.29 75.36L19.22 59.79Z" fill="#414042" fill-opacity="1.000000" fill-rule="nonzero"/>
		<path id="polygon" d="M39.23 27.67L36.6 33.33L43.44 33.33L39.23 27.67Z" fill="#F7941D" fill-opacity="1.000000" fill-rule="nonzero"/>
		<path id="polygon" d="M72.24 54.73L78.82 54.73L78.82 38.59L57.77 38.59L72.24 54.73Z" fill="#F7941D" fill-opacity="1.000000" fill-rule="nonzero"/>
		<path id="polygon" d="M47.34 38.59L34.16 38.59L26.7 54.73L59.32 54.73L47.34 38.59Z" fill="#F7941D" fill-opacity="1.000000" fill-rule="nonzero"/>
		<path id="polygon" d="M91.74 75.91L92.01 75.91L92.01 59.79L77.26 59.79L91.74 75.91Z" fill="#F7941D" fill-opacity="1.000000" fill-rule="nonzero"/>
		<path id="polygon" d="M63.48 59.79L24.22 59.79L16.75 75.91L75.46 75.91L63.48 59.79Z" fill="#F7941D" fill-opacity="1.000000" fill-rule="nonzero"/>
		<path id="polyline" d="M38.39 16.7L66.67 16.7L66.67 33.33L53.03 33.33L38.39 17.02L38.39 16.7Z" fill="#F7941D" fill-opacity="1.000000" fill-rule="nonzero"/>
		<path id="polyline" d="M38.39 16.7L12.08 16.7L12.08 33.33L31.12 33.33L38.21 17.37L38.37 17L38.39 16.7Z" fill="#414042" fill-opacity="1.000000" fill-rule="nonzero"/>
		<path id="path" d="M124.03 21.46C121.02 21.46 118.68 22.53 117.01 24.66C115.34 26.79 114.51 29.71 114.51 33.43C114.51 37.17 115.29 40.08 116.83 42.16C118.39 44.25 120.77 45.3 123.99 45.3C125.39 45.3 126.76 45.15 128.11 44.86C129.45 44.58 130.84 44.19 132.28 43.69L132.28 48.7C130.91 49.25 129.53 49.65 128.16 49.9C126.78 50.15 125.19 50.26 123.4 50.26C119.98 50.26 117.16 49.57 114.93 48.18C112.7 46.78 111.04 44.83 109.96 42.3C108.87 39.76 108.33 36.8 108.33 33.4C108.33 30.09 108.94 27.16 110.15 24.63C111.37 22.1 113.14 20.12 115.48 18.67C117.82 17.24 120.68 16.51 124.07 16.51C125.75 16.51 127.4 16.69 129.03 17.06C130.67 17.42 132.19 17.96 133.61 18.66L131.57 23.49C130.39 22.96 129.16 22.5 127.91 22.08C126.66 21.66 125.34 21.46 124.03 21.46Z" fill="#4D5051" fill-opacity="1.000000" fill-rule="nonzero"/>
		<path id="path" d="M156.41 16.51L156.41 20.55C160.01 20.62 162.87 21.22 165.01 22.35C167.15 23.49 168.68 24.97 169.59 26.81C170.5 28.65 170.96 30.65 170.96 32.79C170.96 34.2 170.72 35.62 170.23 37.06C169.76 38.51 168.97 39.83 167.86 41.04C166.76 42.26 165.27 43.23 163.39 43.99C161.51 44.75 159.18 45.15 156.38 45.2L156.38 50.26L150.89 50.26L150.89 45.2C148.04 45.14 145.67 44.73 143.79 43.96C141.92 43.2 140.43 42.2 139.32 41C138.23 39.79 137.45 38.46 137 37.03C136.55 35.58 136.33 34.17 136.33 32.8C136.33 30.65 136.79 28.66 137.73 26.84C138.66 25.01 140.18 23.53 142.3 22.38C144.43 21.23 147.29 20.62 150.89 20.56L150.89 16.52L156.41 16.51ZM150.92 25.25C148.72 25.31 146.97 25.66 145.68 26.33C144.39 27 143.48 27.87 142.91 28.95C142.36 30.03 142.08 31.3 142.08 32.75C142.08 35.08 142.78 36.93 144.19 38.32C145.6 39.7 147.85 40.44 150.92 40.57L150.92 25.25ZM156.41 25.25L156.41 40.56C159.51 40.44 161.76 39.67 163.15 38.26C164.55 36.86 165.25 35.02 165.25 32.75C165.25 31.31 164.97 30.03 164.41 28.93C163.86 27.82 162.94 26.94 161.64 26.3C160.36 25.65 158.61 25.3 156.41 25.25Z" fill="#4D5051" fill-opacity="1.000000" fill-rule="nonzero"/>
		<path id="path" d="M196.42 49.81L177.53 49.81L177.53 16.96L196.42 16.96L196.42 21.88L183.49 21.88L183.49 30.26L195.59 30.26L195.59 35.17L183.49 35.17L183.49 44.84L196.42 44.84L196.42 49.81Z" fill="#4D5051" fill-opacity="1.000000" fill-rule="nonzero"/>
		<path id="path" d="M213.4 16.96C217.71 16.96 220.85 17.85 222.82 19.61C224.78 21.37 225.77 23.84 225.77 27C225.77 28.86 225.36 30.61 224.56 32.24C223.76 33.87 222.4 35.19 220.48 36.19C218.57 37.21 216 37.7 212.74 37.7L209.44 37.7L209.44 49.8L203.49 49.8L203.49 16.96L213.4 16.96ZM213.03 21.84L209.44 21.84L209.44 32.84L212.15 32.84C214.56 32.84 216.43 32.41 217.75 31.53C219.07 30.66 219.73 29.23 219.73 27.23C219.73 25.42 219.19 24.07 218.11 23.19C217.01 22.29 215.33 21.84 213.03 21.84Z" fill="#4D5051" fill-opacity="1.000000" fill-rule="nonzero"/>
		<path id="path" d="M250.48 49.81L247.46 41.11L234.94 41.11L231.96 49.81L225.63 49.81L237.82 16.83L244.61 16.83L256.8 49.81L250.48 49.81ZM245.92 36.05L243.03 27.58C242.91 27.19 242.71 26.6 242.48 25.86C242.22 25.1 242 24.35 241.78 23.56C241.55 22.78 241.37 22.13 241.22 21.61C241.06 22.25 240.88 22.98 240.64 23.77C240.4 24.57 240.19 25.33 240 26.03C239.8 26.73 239.63 27.26 239.51 27.6L236.58 36.06L245.92 36.05Z" fill="#4D5051" fill-opacity="1.000000" fill-rule="nonzero"/>
		<path id="path" d="M258.44 39.91L258.44 35.03L270.26 35.03L270.26 39.91L258.44 39.91Z" fill="#4D5051" fill-opacity="1.000000" fill-rule="nonzero"/>
		<path id="path" d="M290.3 21.46C287.29 21.46 284.94 22.53 283.28 24.66C281.6 26.79 280.77 29.71 280.77 33.43C280.77 37.17 281.55 40.08 283.1 42.16C284.65 44.25 287.04 45.3 290.26 45.3C291.66 45.3 293.03 45.15 294.38 44.86C295.72 44.58 297.11 44.19 298.54 43.69L298.54 48.7C297.17 49.25 295.8 49.65 294.43 49.9C293.04 50.15 291.46 50.26 289.67 50.26C286.25 50.26 283.43 49.57 281.2 48.18C278.97 46.78 277.3 44.83 276.22 42.3C275.14 39.76 274.6 36.8 274.6 33.4C274.6 30.09 275.21 27.16 276.42 24.63C277.63 22.1 279.4 20.12 281.75 18.67C284.09 17.24 286.95 16.51 290.34 16.51C292.01 16.51 293.66 16.69 295.3 17.06C296.93 17.42 298.45 17.96 299.88 18.66L297.83 23.49C296.66 22.96 295.43 22.5 294.18 22.08C292.92 21.66 291.6 21.46 290.3 21.46Z" fill="#4D5051" fill-opacity="1.000000" fill-rule="nonzero"/>
		<path id="path" d="M317.61 49.81L311.66 49.81L311.66 21.93L302.12 21.93L302.12 16.96L327.15 16.96L327.15 21.93L317.61 21.93L317.61 49.81Z" fill="#4D5051" fill-opacity="1.000000" fill-rule="nonzero"/>
		<path id="path" d="M342.12 16.96C346.43 16.96 349.57 17.85 351.54 19.61C353.5 21.37 354.49 23.84 354.49 27C354.49 28.86 354.09 30.61 353.28 32.24C352.48 33.87 351.12 35.19 349.2 36.19C347.29 37.21 344.72 37.7 341.46 37.7L338.16 37.7L338.16 49.8L332.21 49.8L332.21 16.96L342.12 16.96ZM341.75 21.84L338.16 21.84L338.16 32.84L340.87 32.84C343.28 32.84 345.15 32.41 346.47 31.53C347.79 30.66 348.45 29.23 348.45 27.23C348.45 25.42 347.91 24.07 346.83 23.19C345.73 22.29 344.05 21.84 341.75 21.84Z" fill="#4D5051" fill-opacity="1.000000" fill-rule="nonzero"/>
		<path id="path" d="M390.69 33.33C390.69 36.74 390.13 39.7 388.99 42.23C387.86 44.76 386.13 46.73 383.81 48.14C381.49 49.55 378.57 50.25 375.06 50.25C371.5 50.25 368.57 49.55 366.28 48.14C363.98 46.73 362.26 44.75 361.13 42.2C360 39.66 359.43 36.69 359.43 33.28C359.43 29.9 360 26.96 361.13 24.43C362.26 21.9 363.98 19.94 366.3 18.54C368.61 17.15 371.55 16.46 375.11 16.46C378.62 16.46 381.53 17.16 383.83 18.54C386.14 19.94 387.87 21.9 388.99 24.43C390.13 26.97 390.69 29.93 390.69 33.33ZM365.71 33.33C365.71 37.04 366.46 39.96 367.96 42.07C369.47 44.19 371.83 45.24 375.06 45.24C378.39 45.24 380.77 44.19 382.23 42.07C383.68 39.96 384.42 37.04 384.42 33.33C384.42 29.63 383.69 26.71 382.23 24.6C380.76 22.48 378.4 21.43 375.1 21.43C371.84 21.43 369.47 22.48 367.96 24.6C366.46 26.71 365.71 29.63 365.71 33.33Z" fill="#4D5051" fill-opacity="1.000000" fill-rule="nonzero"/>
		<path id="path" d="M397.77 16.96L403.16 16.96L403.16 33.66C403.16 34.68 403.15 35.81 403.11 37.09C403.08 38.37 403.04 39.53 402.99 40.59C402.94 41.64 402.88 42.36 402.83 42.73L403.02 42.73L419.48 16.96L426.46 16.96L426.46 49.81L421.06 49.81L421.06 33.24C421.06 32.13 421.09 30.92 421.16 29.59C421.22 28.26 421.28 27.05 421.34 25.98C421.41 24.91 421.45 24.18 421.49 23.81L421.3 23.81L404.78 49.8L397.75 49.8L397.77 16.96ZM422.98 6.39C422.82 7.95 422.38 9.31 421.67 10.46C420.96 11.6 419.88 12.49 418.44 13.1C417 13.72 415.06 14.03 412.65 14.03C410.17 14.03 408.23 13.73 406.83 13.13C405.43 12.53 404.43 11.66 403.81 10.51C403.19 9.36 402.82 7.99 402.69 6.39L407.99 6.39C408.11 8.07 408.54 9.19 409.27 9.74C410 10.29 411.17 10.56 412.78 10.56C414.15 10.56 415.25 10.26 416.08 9.66C416.91 9.06 417.41 7.96 417.57 6.37L422.98 6.39Z" fill="#4D5051" fill-opacity="1.000000" fill-rule="nonzero"/>
		<path id="path" d="M461.45 49.81L452.33 22.9L452.15 22.9C452.21 23.51 452.26 24.37 452.3 25.5C452.36 26.62 452.4 27.83 452.45 29.13C452.5 30.44 452.52 31.65 452.52 32.79L452.52 49.81L447.16 49.81L447.16 16.96L455.44 16.96L464.19 42.76L464.38 42.76L473.49 16.96L481.78 16.96L481.78 49.81L476.1 49.81L476.1 32.51C476.1 31.47 476.13 30.33 476.17 29.08C476.21 27.83 476.26 26.66 476.31 25.53C476.37 24.41 476.39 23.55 476.43 22.94L476.25 22.94L466.76 49.8L461.45 49.81Z" fill="#4D5051" fill-opacity="1.000000" fill-rule="nonzero"/>
		<path id="path" d="M114.72 65.69C114.11 65.69 113.65 65.92 113.32 66.37C113 66.82 112.83 67.44 112.83 68.21C112.83 69 112.98 69.61 113.28 70.04C113.58 70.47 114.06 70.69 114.71 70.69C115.01 70.69 115.31 70.65 115.62 70.59C115.92 70.52 116.25 70.42 116.6 70.3L116.6 71.62C116.28 71.75 115.95 71.84 115.63 71.9C115.31 71.97 114.94 72 114.55 72C113.77 72 113.14 71.84 112.65 71.53C112.15 71.21 111.79 70.77 111.55 70.19C111.31 69.62 111.2 68.96 111.2 68.2C111.2 67.46 111.33 66.79 111.6 66.22C111.88 65.64 112.28 65.2 112.79 64.87C113.31 64.55 113.95 64.39 114.71 64.39C115.07 64.39 115.44 64.44 115.83 64.53C116.2 64.63 116.55 64.76 116.9 64.91L116.38 66.19C116.1 66.06 115.83 65.94 115.54 65.85C115.25 65.76 115 65.69 114.72 65.69Z" fill="#4D5051" fill-opacity="1.000000" fill-rule="nonzero"/>
		<path id="path" d="M121.1 71.89L119.52 71.89L119.52 65.8L117.49 65.8L117.49 64.5L123.14 64.5L123.14 65.8L121.1 65.8L121.1 71.89Z" fill="#4D5051" fill-opacity="1.000000" fill-rule="nonzero"/>
		<path id="path" d="M126.67 64.5C127.63 64.5 128.33 64.7 128.78 65.11C129.23 65.51 129.44 66.09 129.44 66.8C129.44 67.23 129.35 67.64 129.16 68.02C128.98 68.4 128.68 68.69 128.25 68.92C127.83 69.14 127.25 69.26 126.53 69.26L125.84 69.26L125.84 71.89L124.26 71.89L124.26 64.5L126.67 64.5ZM126.59 65.77L125.87 65.77L125.87 67.96L126.39 67.96C126.84 67.96 127.2 67.87 127.46 67.7C127.73 67.53 127.86 67.25 127.86 66.84C127.85 66.14 127.42 65.77 126.59 65.77Z" fill="#4D5051" fill-opacity="1.000000" fill-rule="nonzero"/>
		<path id="path" d="M137.65 68.17C137.65 68.94 137.52 69.61 137.26 70.18C137.01 70.76 136.62 71.2 136.09 71.51C135.56 71.83 134.89 72 134.09 72C133.28 72 132.61 71.84 132.08 71.51C131.55 71.2 131.16 70.76 130.91 70.18C130.66 69.61 130.52 68.94 130.52 68.17C130.52 67.4 130.66 66.74 130.91 66.18C131.16 65.62 131.55 65.17 132.08 64.86C132.61 64.55 133.28 64.39 134.1 64.39C134.9 64.39 135.58 64.55 136.1 64.86C136.63 65.17 137.01 65.62 137.26 66.19C137.52 66.74 137.65 67.42 137.65 68.17ZM132.19 68.17C132.19 68.94 132.33 69.56 132.63 70C132.94 70.44 133.41 70.66 134.09 70.66C134.76 70.66 135.25 70.44 135.54 70C135.83 69.56 135.97 68.94 135.97 68.17C135.97 67.4 135.83 66.79 135.54 66.35C135.25 65.9 134.76 65.68 134.09 65.68C133.41 65.68 132.92 65.9 132.63 66.35C132.34 66.79 132.19 67.4 132.19 68.17Z" fill="#4D5051" fill-opacity="1.000000" fill-rule="nonzero"/>
		<path id="path" d="M139.19 64.5L140.62 64.5L140.62 68.07C140.62 68.24 140.62 68.43 140.6 68.64C140.59 68.85 140.59 69.06 140.58 69.27C140.56 69.48 140.56 69.65 140.55 69.79C140.54 69.93 140.54 70.04 140.52 70.09L144.01 64.48L145.91 64.48L145.91 71.88L144.49 71.88L144.49 68.33C144.49 68.15 144.49 67.94 144.51 67.72C144.52 67.5 144.52 67.27 144.53 67.06C144.55 66.86 144.56 66.67 144.56 66.52C144.57 66.36 144.57 66.26 144.59 66.22L141.08 71.88L139.18 71.88L139.19 64.5Z" fill="#4D5051" fill-opacity="1.000000" fill-rule="nonzero"/>
		<path id="path" d="M150.69 71.89L149.11 71.89L149.11 65.8L147.08 65.8L147.08 64.5L152.73 64.5L152.73 65.8L150.69 65.8L150.69 71.89Z" fill="#4D5051" fill-opacity="1.000000" fill-rule="nonzero"/>
		<path id="path" d="M158.19 71.89L153.89 71.89L153.89 64.5L158.19 64.5L158.19 65.77L155.47 65.77L155.47 67.4L158 67.4L158 68.68L155.47 68.68L155.47 70.59L158.19 70.59L158.19 71.89Z" fill="#4D5051" fill-opacity="1.000000" fill-rule="nonzero"/>
		<path id="path" d="M165.66 71.89L164.07 71.89L164.07 65.8L162.24 65.8C162.2 66.11 162.16 66.46 162.11 66.83C162.07 67.21 162.01 67.59 161.96 67.96C161.91 68.34 161.86 68.71 161.8 69.05C161.75 69.39 161.7 69.69 161.63 69.95C161.54 70.38 161.42 70.74 161.28 71.04C161.13 71.34 160.92 71.58 160.66 71.73C160.39 71.89 160.05 71.97 159.64 71.97C159.36 71.97 159.11 71.93 158.89 71.85L158.89 70.57C158.98 70.61 159.07 70.64 159.15 70.65C159.24 70.66 159.34 70.68 159.44 70.68C159.64 70.68 159.8 70.57 159.9 70.36C160.01 70.16 160.13 69.76 160.23 69.18C160.27 68.96 160.34 68.62 160.42 68.15C160.5 67.68 160.58 67.13 160.67 66.49C160.76 65.85 160.85 65.19 160.93 64.48L165.66 64.48L165.66 71.89Z" fill="#4D5051" fill-opacity="1.000000" fill-rule="nonzero"/>
		<path id="path" d="M167.54 71.89L167.54 64.5L169.12 64.5L169.12 67.33L169.76 67.33C170.46 67.33 171.04 67.42 171.49 67.61C171.93 67.81 172.26 68.07 172.49 68.41C172.7 68.75 172.82 69.14 172.82 69.57C172.82 70.3 172.57 70.87 172.08 71.28C171.59 71.68 170.8 71.88 169.73 71.88L167.54 71.89ZM169.12 70.6L169.65 70.6C170.14 70.6 170.51 70.52 170.79 70.38C171.06 70.23 171.2 69.96 171.2 69.58C171.2 69.19 171.05 68.93 170.75 68.81C170.44 68.68 170.04 68.63 169.52 68.63L169.11 68.63L169.12 70.6Z" fill="#4D5051" fill-opacity="1.000000" fill-rule="nonzero"/>
		<path id="path" d="M177.4 65.69C176.79 65.69 176.33 65.92 176 66.37C175.68 66.82 175.51 67.44 175.51 68.21C175.51 69 175.66 69.61 175.96 70.04C176.26 70.47 176.74 70.69 177.38 70.69C177.69 70.69 177.99 70.65 178.29 70.59C178.6 70.52 178.93 70.42 179.28 70.3L179.28 71.62C178.95 71.75 178.62 71.84 178.31 71.9C177.99 71.97 177.62 72 177.23 72C176.45 72 175.81 71.84 175.33 71.53C174.82 71.21 174.47 70.77 174.23 70.19C173.99 69.62 173.87 68.96 173.87 68.2C173.87 67.46 174.01 66.79 174.28 66.22C174.56 65.64 174.96 65.2 175.47 64.87C175.98 64.55 176.63 64.39 177.38 64.39C177.75 64.39 178.12 64.44 178.5 64.53C178.87 64.63 179.23 64.76 179.57 64.91L179.06 66.19C178.78 66.06 178.5 65.94 178.21 65.85C177.92 65.76 177.67 65.69 177.4 65.69Z" fill="#4D5051" fill-opacity="1.000000" fill-rule="nonzero"/>
		<path id="path" d="M183.78 71.89L182.2 71.89L182.2 65.8L180.17 65.8L180.17 64.5L185.81 64.5L185.81 65.8L183.78 65.8L183.78 71.89Z" fill="#4D5051" fill-opacity="1.000000" fill-rule="nonzero"/>
		<path id="path" d="M186.96 64.5L189.28 64.5C190.27 64.5 191.02 64.64 191.54 64.91C192.05 65.19 192.3 65.67 192.3 66.37C192.3 66.79 192.2 67.16 192 67.44C191.8 67.73 191.51 67.91 191.14 67.96C191.39 68.02 191.62 68.16 191.82 68.28C192.03 68.4 192.19 68.58 192.3 68.81C192.42 69.05 192.48 69.36 192.48 69.74C192.48 70.4 192.23 70.94 191.74 71.32C191.25 71.69 190.58 71.89 189.73 71.89L186.93 71.89L186.96 64.5ZM188.54 67.43L189.47 67.43C189.93 67.43 190.25 67.36 190.43 67.22C190.62 67.08 190.69 66.87 190.69 66.58C190.69 66.3 190.59 66.1 190.38 65.97C190.17 65.85 189.84 65.79 189.39 65.79L188.54 65.79L188.54 67.43ZM188.54 68.67L188.54 70.6L189.59 70.6C190.06 70.6 190.39 70.51 190.58 70.33C190.76 70.14 190.85 69.9 190.85 69.6C190.85 69.32 190.76 69.1 190.56 68.93C190.36 68.76 190.02 68.68 189.52 68.68L188.54 68.67Z" fill="#4D5051" fill-opacity="1.000000" fill-rule="nonzero"/>
		<path id="path" d="M200.79 68.17C200.79 68.94 200.66 69.61 200.4 70.18C200.15 70.76 199.76 71.2 199.23 71.51C198.7 71.83 198.03 72 197.23 72C196.42 72 195.75 71.84 195.22 71.51C194.69 71.2 194.3 70.76 194.05 70.18C193.79 69.61 193.66 68.94 193.66 68.17C193.66 67.4 193.79 66.74 194.05 66.18C194.3 65.62 194.69 65.17 195.22 64.86C195.75 64.55 196.42 64.39 197.24 64.39C198.04 64.39 198.72 64.55 199.24 64.86C199.77 65.17 200.15 65.62 200.4 66.19C200.66 66.74 200.79 67.42 200.79 68.17ZM195.33 68.17C195.33 68.94 195.47 69.56 195.77 70C196.08 70.44 196.55 70.66 197.23 70.66C197.9 70.66 198.39 70.44 198.68 70C198.97 69.56 199.11 68.94 199.11 68.17C199.11 67.4 198.97 66.79 198.68 66.35C198.39 65.9 197.9 65.68 197.23 65.68C196.55 65.68 196.06 65.9 195.77 66.35C195.48 66.79 195.33 67.4 195.33 68.17Z" fill="#4D5051" fill-opacity="1.000000" fill-rule="nonzero"/>
		<path id="path" d="M211.84 68.17C211.84 68.94 211.71 69.61 211.46 70.18C211.21 70.76 210.81 71.2 210.29 71.51C209.76 71.83 209.09 72 208.28 72C207.48 72 206.8 71.84 206.28 71.51C205.75 71.2 205.35 70.76 205.1 70.18C204.85 69.61 204.72 68.94 204.72 68.17C204.72 67.4 204.85 66.74 205.1 66.18C205.35 65.62 205.75 65.17 206.28 64.86C206.8 64.55 207.48 64.39 208.29 64.39C209.1 64.39 209.77 64.55 210.3 64.86C210.83 65.17 211.21 65.62 211.46 66.19C211.71 66.74 211.84 67.42 211.84 68.17ZM206.38 68.17C206.38 68.94 206.53 69.56 206.83 70C207.13 70.44 207.61 70.66 208.28 70.66C208.95 70.66 209.44 70.44 209.73 70C210.02 69.56 210.17 68.94 210.17 68.17C210.17 67.4 210.02 66.79 209.73 66.35C209.44 65.9 208.95 65.68 208.28 65.68C207.61 65.68 207.12 65.9 206.83 66.35C206.54 66.79 206.38 67.4 206.38 68.17Z" fill="#4D5051" fill-opacity="1.000000" fill-rule="nonzero"/>
		<path id="path" d="M213.39 71.89L213.39 64.5L218.11 64.5L218.11 65.79L214.97 65.79L214.97 67.33L215.6 67.33C216.3 67.33 216.88 67.42 217.33 67.61C217.78 67.81 218.11 68.07 218.33 68.41C218.54 68.75 218.66 69.14 218.66 69.57C218.66 70.3 218.41 70.87 217.92 71.28C217.44 71.68 216.64 71.88 215.58 71.88L213.39 71.89ZM214.97 70.6L215.5 70.6C215.98 70.6 216.35 70.52 216.63 70.38C216.91 70.23 217.04 69.96 217.04 69.58C217.04 69.19 216.9 68.93 216.59 68.81C216.29 68.68 215.88 68.63 215.36 68.63L214.96 68.63L214.97 70.6Z" fill="#4D5051" fill-opacity="1.000000" fill-rule="nonzero"/>
		<path id="path" d="M221.01 71.89L221.01 65.8L219.14 65.8L219.14 64.5L222.59 64.5L222.59 67.33L223.23 67.33C223.93 67.33 224.51 67.42 224.96 67.61C225.4 67.81 225.75 68.07 225.96 68.41C226.17 68.75 226.29 69.14 226.29 69.57C226.29 70.3 226.04 70.87 225.55 71.28C225.06 71.68 224.27 71.88 223.2 71.88L221.01 71.89ZM222.58 70.6L223.11 70.6C223.6 70.6 223.97 70.52 224.24 70.38C224.52 70.23 224.65 69.96 224.65 69.58C224.65 69.19 224.51 68.93 224.2 68.81C223.9 68.68 223.49 68.63 222.98 68.63L222.57 68.63L222.58 70.6Z" fill="#4D5051" fill-opacity="1.000000" fill-rule="nonzero"/>
		<path id="path" d="M231.99 71.89L227.69 71.89L227.69 64.5L231.99 64.5L231.99 65.77L229.27 65.77L229.27 67.4L231.8 67.4L231.8 68.68L229.27 68.68L229.27 70.59L231.99 70.59L231.99 71.89Z" fill="#4D5051" fill-opacity="1.000000" fill-rule="nonzero"/>
		<path id="path" d="M239.65 71.89L237.85 71.89L235.13 68.15L235.13 71.89L233.54 71.89L233.54 64.5L235.13 64.5L235.13 68.15L237.81 64.5L239.49 64.5L236.78 68.04L239.65 71.89Z" fill="#4D5051" fill-opacity="1.000000" fill-rule="nonzero"/>
		<path id="path" d="M243.47 71.89L241.88 71.89L241.88 65.8L239.85 65.8L239.85 64.5L245.5 64.5L245.5 65.8L243.47 65.8L243.47 71.89Z" fill="#4D5051" fill-opacity="1.000000" fill-rule="nonzero"/>
		<path id="path" d="M253.23 68.17C253.23 68.94 253.1 69.61 252.85 70.18C252.59 70.76 252.2 71.2 251.67 71.51C251.14 71.83 250.47 72 249.67 72C248.86 72 248.19 71.84 247.66 71.51C247.13 71.2 246.74 70.76 246.49 70.18C246.24 69.61 246.1 68.94 246.1 68.17C246.1 67.4 246.24 66.74 246.49 66.18C246.74 65.62 247.13 65.17 247.66 64.86C248.19 64.55 248.86 64.39 249.68 64.39C250.48 64.39 251.16 64.55 251.68 64.86C252.21 65.17 252.59 65.62 252.85 66.19C253.1 66.74 253.23 67.42 253.23 68.17ZM247.78 68.17C247.78 68.94 247.92 69.56 248.23 70C248.53 70.44 249.01 70.66 249.68 70.66C250.35 70.66 250.84 70.44 251.13 70C251.42 69.56 251.57 68.94 251.57 68.17C251.57 67.4 251.42 66.79 251.13 66.35C250.84 65.9 250.35 65.68 249.68 65.68C249.01 65.68 248.52 65.9 248.23 66.35C247.92 66.79 247.78 67.4 247.78 68.17Z" fill="#4D5051" fill-opacity="1.000000" fill-rule="nonzero"/>
		<path id="path" d="M254.78 64.5L257.11 64.5C258.1 64.5 258.85 64.64 259.36 64.91C259.88 65.19 260.13 65.67 260.13 66.37C260.13 66.79 260.02 67.16 259.82 67.44C259.63 67.73 259.34 67.91 258.97 67.96C259.22 68.02 259.44 68.16 259.64 68.28C259.85 68.4 260.01 68.58 260.13 68.81C260.25 69.05 260.3 69.36 260.3 69.74C260.3 70.4 260.05 70.94 259.56 71.32C259.07 71.69 258.4 71.89 257.55 71.89L254.76 71.89L254.78 64.5ZM256.35 67.43L257.28 67.43C257.74 67.43 258.06 67.36 258.24 67.22C258.43 67.08 258.5 66.87 258.5 66.58C258.5 66.3 258.4 66.1 258.19 65.97C257.98 65.85 257.65 65.79 257.2 65.79L256.35 65.79L256.35 67.43ZM256.35 68.67L256.35 70.6L257.4 70.6C257.87 70.6 258.2 70.51 258.39 70.33C258.57 70.14 258.66 69.9 258.66 69.6C258.66 69.32 258.57 69.1 258.37 68.93C258.17 68.76 257.83 68.68 257.33 68.68L256.35 68.67Z" fill="#4D5051" fill-opacity="1.000000" fill-rule="nonzero"/>
		<path id="path" d="M266.26 68.04L263.76 64.5L265.39 64.5L267.81 68.08L267.81 64.5L269.28 64.5L269.28 68.08L271.7 64.5L273.33 64.5L270.81 68.04L273.48 71.89L271.78 71.89L269.28 68.08L269.27 71.89L267.79 71.89L267.81 68.08L265.29 71.89L263.58 71.89L266.26 68.04Z" fill="#4D5051" fill-opacity="1.000000" fill-rule="nonzero"/>
		<path id="path" d="M278.72 71.89L274.42 71.89L274.42 64.5L278.72 64.5L278.72 65.77L276 65.77L276 67.4L278.53 67.4L278.53 68.68L276 68.68L276 70.59L278.72 70.59L278.72 71.89Z" fill="#4D5051" fill-opacity="1.000000" fill-rule="nonzero"/>
		<path id="path" d="M286.2 71.89L284.61 71.89L284.61 65.8L282.78 65.8C282.74 66.11 282.7 66.46 282.65 66.83C282.61 67.21 282.55 67.59 282.5 67.96C282.45 68.34 282.4 68.71 282.34 69.05C282.29 69.39 282.24 69.69 282.17 69.95C282.08 70.38 281.96 70.74 281.82 71.04C281.67 71.34 281.46 71.58 281.2 71.73C280.93 71.89 280.59 71.97 280.18 71.97C279.9 71.97 279.65 71.93 279.43 71.85L279.43 70.57C279.52 70.61 279.61 70.64 279.69 70.65C279.78 70.66 279.88 70.68 279.98 70.68C280.18 70.68 280.34 70.57 280.44 70.36C280.55 70.16 280.67 69.76 280.77 69.18C280.81 68.96 280.88 68.62 280.96 68.15C281.04 67.68 281.12 67.13 281.21 66.49C281.3 65.85 281.39 65.19 281.47 64.48L286.2 64.48L286.2 71.89Z" fill="#4D5051" fill-opacity="1.000000" fill-rule="nonzero"/>
		<path id="path" d="M292.38 71.89L288.08 71.89L288.08 64.5L292.38 64.5L292.38 65.77L289.67 65.77L289.67 67.4L292.2 67.4L292.2 68.68L289.67 68.68L289.67 70.59L292.38 70.59L292.38 71.89Z" fill="#4D5051" fill-opacity="1.000000" fill-rule="nonzero"/>
		<path id="path" d="M299.11 66.22C299.11 66.71 298.94 67.12 298.58 67.42C298.23 67.72 297.78 67.91 297.22 67.99C297.91 68.06 298.44 68.28 298.79 68.58C299.15 68.88 299.35 69.28 299.35 69.78C299.35 70.43 299.09 70.95 298.54 71.37C298.02 71.77 297.22 71.98 296.2 71.98C295.63 71.98 295.13 71.94 294.69 71.88C294.26 71.81 293.87 71.71 293.56 71.58L293.56 70.26C293.77 70.36 294.02 70.46 294.3 70.52C294.57 70.6 294.85 70.65 295.13 70.69C295.4 70.73 295.67 70.74 295.91 70.74C296.57 70.74 297.05 70.65 297.34 70.46C297.65 70.26 297.79 70 297.79 69.65C297.79 69.3 297.58 69.03 297.15 68.88C296.71 68.72 296.13 68.63 295.39 68.63L294.69 68.63L294.69 67.43L295.32 67.43C295.92 67.43 296.38 67.39 296.71 67.31C297.04 67.23 297.26 67.13 297.4 66.99C297.53 66.84 297.59 66.67 297.59 66.46C297.59 66.2 297.48 66.01 297.25 65.86C297.03 65.72 296.68 65.64 296.24 65.64C295.84 65.64 295.48 65.69 295.14 65.81C294.81 65.92 294.49 66.07 294.2 66.24L293.52 65.2C293.9 64.95 294.32 64.76 294.8 64.61C295.26 64.47 295.83 64.39 296.46 64.39C297.3 64.39 297.96 64.56 298.44 64.91C298.87 65.25 299.11 65.69 299.11 66.22Z" fill="#4D5051" fill-opacity="1.000000" fill-rule="nonzero"/>
		<path id="path" d="M306.85 71.89L305.27 71.89L305.27 68.69L302.3 68.69L302.3 71.89L300.72 71.89L300.72 64.5L302.3 64.5L302.3 67.39L305.27 67.39L305.27 64.5L306.85 64.5L306.85 71.89Z" fill="#4D5051" fill-opacity="1.000000" fill-rule="nonzero"/>
		<path id="path" d="M315.52 68.17C315.52 68.94 315.39 69.61 315.14 70.18C314.89 70.76 314.49 71.2 313.97 71.51C313.44 71.83 312.76 72 311.96 72C311.16 72 310.48 71.84 309.96 71.51C309.43 71.2 309.03 70.76 308.78 70.18C308.53 69.61 308.4 68.94 308.4 68.17C308.4 67.4 308.53 66.74 308.78 66.18C309.03 65.62 309.43 65.17 309.96 64.86C310.48 64.55 311.16 64.39 311.97 64.39C312.78 64.39 313.45 64.55 313.98 64.86C314.51 65.17 314.89 65.62 315.14 66.19C315.39 66.76 315.52 67.42 315.52 68.17ZM310.07 68.17C310.07 68.94 310.22 69.56 310.52 70C310.83 70.44 311.3 70.66 311.97 70.66C312.65 70.66 313.14 70.44 313.43 70C313.72 69.56 313.86 68.94 313.86 68.17C313.86 67.4 313.72 66.79 313.43 66.35C313.14 65.9 312.65 65.68 311.97 65.68C311.3 65.68 310.81 65.9 310.52 66.35C310.22 66.79 310.07 67.4 310.07 68.17Z" fill="#4D5051" fill-opacity="1.000000" fill-rule="nonzero"/>
		<path id="path" d="M322.73 64.5L322.73 70.59L323.72 70.59L323.72 74.04L322.19 74.04L322.19 71.89L317.5 71.89L317.5 74.04L315.97 74.04L315.97 70.59L316.55 70.59C316.82 70.08 317.07 69.52 317.29 68.93C317.51 68.34 317.73 67.68 317.91 66.95C318.1 66.22 318.24 65.41 318.36 64.5L322.73 64.5ZM321.14 65.8L319.63 65.8C319.56 66.28 319.47 66.8 319.32 67.35C319.19 67.9 319.02 68.46 318.83 69.01C318.65 69.57 318.44 70.09 318.21 70.57L321.13 70.57L321.14 65.8Z" fill="#4D5051" fill-opacity="1.000000" fill-rule="nonzero"/>
		<path id="path" d="M331.66 68.17C331.66 68.94 331.53 69.61 331.28 70.18C331.02 70.76 330.63 71.2 330.1 71.51C329.57 71.83 328.9 72 328.1 72C327.29 72 326.62 71.84 326.09 71.51C325.56 71.2 325.17 70.76 324.92 70.18C324.67 69.61 324.53 68.93 324.53 68.17C324.53 67.4 324.67 66.74 324.92 66.18C325.17 65.62 325.56 65.17 326.09 64.86C326.62 64.55 327.29 64.39 328.11 64.39C328.91 64.39 329.59 64.55 330.11 64.86C330.64 65.17 331.02 65.62 331.28 66.19C331.53 66.76 331.66 67.42 331.66 68.17ZM326.2 68.17C326.2 68.94 326.34 69.56 326.64 70C326.95 70.44 327.42 70.66 328.1 70.66C328.77 70.66 329.26 70.44 329.55 70C329.84 69.56 329.98 68.94 329.98 68.17C329.98 67.4 329.84 66.79 329.55 66.35C329.26 65.9 328.77 65.68 328.1 65.68C327.42 65.68 326.93 65.9 326.64 66.35C326.35 66.79 326.2 67.4 326.2 68.17Z" fill="#4D5051" fill-opacity="1.000000" fill-rule="nonzero"/>
		<path id="path" d="M335.59 64.5C336.55 64.5 337.25 64.7 337.7 65.11C338.15 65.51 338.36 66.09 338.36 66.8C338.36 67.23 338.27 67.64 338.08 68.02C337.9 68.4 337.59 68.69 337.17 68.92C336.75 69.14 336.17 69.26 335.44 69.26L334.76 69.26L334.76 71.89L333.17 71.89L333.17 64.5L335.59 64.5ZM335.51 65.77L334.78 65.77L334.78 67.96L335.31 67.96C335.76 67.96 336.12 67.87 336.38 67.7C336.64 67.53 336.78 67.25 336.78 66.84C336.76 66.14 336.35 65.77 335.51 65.77Z" fill="#4D5051" fill-opacity="1.000000" fill-rule="nonzero"/>
		<path id="path" d="M346.57 68.17C346.57 68.94 346.43 69.61 346.18 70.18C345.93 70.76 345.54 71.2 345.01 71.51C344.48 71.83 343.81 72 343 72C342.2 72 341.53 71.84 341 71.51C340.47 71.2 340.07 70.76 339.82 70.18C339.57 69.61 339.44 68.94 339.44 68.17C339.44 67.4 339.57 66.74 339.82 66.18C340.07 65.62 340.47 65.17 341 64.86C341.53 64.55 342.2 64.39 343.02 64.39C343.82 64.39 344.49 64.55 345.02 64.86C345.55 65.17 345.93 65.62 346.18 66.19C346.43 66.76 346.57 67.42 346.57 68.17ZM341.12 68.17C341.12 68.94 341.26 69.56 341.57 70C341.87 70.44 342.34 70.66 343.02 70.66C343.69 70.66 344.18 70.44 344.47 70C344.76 69.56 344.9 68.94 344.9 68.17C344.9 67.4 344.76 66.79 344.47 66.35C344.18 65.9 343.69 65.68 343.02 65.68C342.34 65.68 341.86 65.9 341.57 66.35C341.26 66.79 341.12 67.4 341.12 68.17Z" fill="#4D5051" fill-opacity="1.000000" fill-rule="nonzero"/>
		<path id="path" d="M349.63 68.04L347.11 64.5L348.74 64.5L351.16 68.08L351.16 64.5L352.63 64.5L352.63 68.08L355.05 64.5L356.68 64.5L354.16 68.04L356.83 71.89L355.13 71.89L352.63 68.08L352.62 71.89L351.14 71.89L351.16 68.08L348.64 71.89L346.96 71.89L349.63 68.04Z" fill="#4D5051" fill-opacity="1.000000" fill-rule="nonzero"/>
		<path id="path" d="M363.91 71.89L362.33 71.89L362.33 68.69L359.36 68.69L359.36 71.89L357.78 71.89L357.78 64.5L359.36 64.5L359.36 67.39L362.33 67.39L362.33 64.5L363.91 64.5L363.91 71.89Z" fill="#4D5051" fill-opacity="1.000000" fill-rule="nonzero"/>
		<path id="path" d="M372.58 68.17C372.58 68.94 372.45 69.61 372.2 70.18C371.95 70.76 371.55 71.2 371.02 71.51C370.5 71.83 369.82 72 369.02 72C368.21 72 367.54 71.84 367.01 71.51C366.49 71.2 366.09 70.76 365.84 70.18C365.59 69.61 365.46 68.94 365.46 68.17C365.46 67.4 365.59 66.74 365.84 66.18C366.09 65.62 366.49 65.17 367.01 64.86C367.54 64.55 368.21 64.39 369.03 64.39C369.84 64.39 370.51 64.55 371.04 64.86C371.57 65.17 371.95 65.62 372.2 66.19C372.45 66.76 372.58 67.42 372.58 68.17ZM367.13 68.17C367.13 68.94 367.28 69.56 367.58 70C367.88 70.44 368.36 70.66 369.03 70.66C369.71 70.66 370.19 70.44 370.48 70C370.77 69.56 370.92 68.94 370.92 68.17C370.92 67.4 370.77 66.79 370.48 66.35C370.19 65.9 369.71 65.68 369.03 65.68C368.36 65.68 367.87 65.9 367.58 66.35C367.28 66.79 367.13 67.4 367.13 68.17Z" fill="#4D5051" fill-opacity="1.000000" fill-rule="nonzero"/>
		<path id="path" d="M374.14 64.5L375.56 64.5L375.56 68.07C375.56 68.24 375.56 68.43 375.55 68.64C375.54 68.85 375.54 69.06 375.52 69.27C375.51 69.48 375.51 69.65 375.5 69.79C375.5 69.93 375.48 70.04 375.47 70.09L378.95 64.48L380.85 64.48L380.85 71.88L379.44 71.88L379.44 68.33C379.44 68.15 379.44 67.94 379.45 67.72C379.47 67.5 379.47 67.27 379.48 67.06C379.49 66.86 379.51 66.67 379.51 66.52C379.52 66.36 379.52 66.26 379.53 66.22L376.02 71.88L374.12 71.88L374.14 64.5ZM380.15 62.06C380.11 62.42 380.02 62.73 379.85 63.01C379.68 63.28 379.41 63.49 379.06 63.65C378.7 63.8 378.23 63.87 377.62 63.87C377 63.87 376.53 63.8 376.18 63.65C375.84 63.49 375.59 63.3 375.44 63.02C375.3 62.75 375.21 62.42 375.18 62.06L376.58 62.06C376.6 62.43 376.7 62.68 376.87 62.81C377.03 62.94 377.29 63 377.66 63C377.96 63 378.2 62.93 378.4 62.79C378.6 62.64 378.7 62.41 378.74 62.04L380.15 62.06Z" fill="#4D5051" fill-opacity="1.000000" fill-rule="nonzero"/>
		<path id="path" d="M385.47 64.5L386.9 64.5L386.9 68.07C386.9 68.24 386.9 68.43 386.88 68.64C386.87 68.85 386.87 69.06 386.86 69.27C386.84 69.48 386.84 69.65 386.83 69.79C386.83 69.93 386.82 70.04 386.8 70.09L390.29 64.48L392.19 64.48L392.19 71.88L390.77 71.88L390.77 68.33C390.77 68.15 390.77 67.94 390.79 67.72C390.8 67.5 390.8 67.27 390.81 67.06C390.83 66.86 390.84 66.67 390.84 66.52C390.85 66.36 390.85 66.26 390.87 66.22L387.36 71.88L385.46 71.88L385.47 64.5Z" fill="#4D5051" fill-opacity="1.000000" fill-rule="nonzero"/>
		<path id="path" d="M400.22 71.89L398.64 71.89L398.64 68.69L395.67 68.69L395.67 71.89L394.09 71.89L394.09 64.5L395.67 64.5L395.67 67.39L398.64 67.39L398.64 64.5L400.22 64.5L400.22 71.89Z" fill="#4D5051" fill-opacity="1.000000" fill-rule="nonzero"/>
		<path id="path" d="M406.38 64.39L406.38 65.3C407.19 65.33 407.84 65.46 408.33 65.72C408.82 65.98 409.18 66.31 409.39 66.73C409.6 67.14 409.71 67.57 409.71 68.06C409.71 68.37 409.65 68.68 409.55 69.01C409.44 69.33 409.26 69.63 409.01 69.91C408.76 70.18 408.41 70.4 407.99 70.57C407.57 70.74 407.03 70.83 406.39 70.85L406.39 71.98L404.97 71.98L404.97 70.85C404.32 70.83 403.79 70.74 403.36 70.57C402.92 70.4 402.59 70.18 402.34 69.9C402.09 69.62 401.91 69.32 401.82 69C401.71 68.67 401.66 68.36 401.66 68.04C401.66 67.56 401.76 67.12 401.97 66.71C402.19 66.31 402.54 65.97 403.02 65.71C403.5 65.45 404.15 65.3 404.97 65.29L404.97 64.38L406.38 64.39ZM404.96 66.52C404.27 66.54 403.79 66.7 403.53 66.99C403.27 67.27 403.12 67.63 403.12 68.04C403.12 68.5 403.27 68.88 403.56 69.16C403.85 69.45 404.31 69.61 404.96 69.63L404.96 66.52ZM406.38 66.52L406.38 69.63C407.03 69.61 407.49 69.45 407.78 69.16C408.07 68.88 408.21 68.5 408.21 68.04C408.21 67.63 408.08 67.27 407.81 66.99C407.54 66.7 407.07 66.56 406.38 66.52Z" fill="#4D5051" fill-opacity="1.000000" fill-rule="nonzero"/>
		<path id="path" d="M413.5 64.5C414.47 64.5 415.17 64.7 415.62 65.11C416.06 65.51 416.28 66.09 416.28 66.8C416.28 67.23 416.18 67.64 416 68.02C415.81 68.4 415.51 68.69 415.09 68.92C414.67 69.14 414.09 69.26 413.36 69.26L412.67 69.26L412.67 71.89L411.09 71.89L411.09 64.5L413.5 64.5ZM413.41 65.77L412.69 65.77L412.69 67.96L413.21 67.96C413.66 67.96 414.02 67.87 414.28 67.7C414.55 67.53 414.68 67.25 414.68 66.84C414.67 66.14 414.26 65.77 413.41 65.77Z" fill="#4D5051" fill-opacity="1.000000" fill-rule="nonzero"/>
		<path id="path" d="M421.74 71.89L421.2 70.13L418.48 70.13L417.94 71.89L416.24 71.89L418.87 64.47L420.81 64.47L423.47 71.89L421.74 71.89ZM420.81 68.81L420.27 67.09C420.23 66.97 420.19 66.83 420.14 66.65C420.09 66.46 420.04 66.28 419.97 66.1C419.9 65.92 419.86 65.75 419.84 65.62C419.8 65.76 419.76 65.93 419.69 66.13C419.64 66.33 419.57 66.52 419.52 66.71C419.47 66.9 419.43 67.03 419.4 67.1L418.87 68.83L420.81 68.81Z" fill="#4D5051" fill-opacity="1.000000" fill-rule="nonzero"/>
		<path id="path" d="M427.57 65.69C426.96 65.69 426.5 65.92 426.17 66.37C425.85 66.82 425.69 67.44 425.69 68.21C425.69 69 425.84 69.61 426.14 70.04C426.45 70.47 426.92 70.69 427.57 70.69C427.87 70.69 428.17 70.65 428.48 70.59C428.78 70.52 429.11 70.42 429.47 70.3L429.47 71.62C429.14 71.75 428.81 71.84 428.49 71.9C428.17 71.97 427.81 72 427.41 72C426.63 72 426 71.84 425.5 71.53C425 71.21 424.64 70.77 424.4 70.19C424.16 69.62 424.05 68.96 424.05 68.2C424.05 67.46 424.18 66.79 424.45 66.22C424.73 65.64 425.13 65.2 425.64 64.87C426.16 64.55 426.8 64.39 427.55 64.39C427.92 64.39 428.29 64.44 428.66 64.53C429.03 64.63 429.39 64.76 429.73 64.91L429.22 66.19C428.94 66.06 428.66 65.94 428.37 65.85C428.11 65.75 427.83 65.69 427.57 65.69Z" fill="#4D5051" fill-opacity="1.000000" fill-rule="nonzero"/>
		<path id="path" d="M433.94 71.89L432.36 71.89L432.36 65.8L430.33 65.8L430.33 64.5L435.97 64.5L435.97 65.8L433.94 65.8L433.94 71.89Z" fill="#4D5051" fill-opacity="1.000000" fill-rule="nonzero"/>
		<path id="path" d="M439.51 64.5C440.47 64.5 441.17 64.7 441.62 65.11C442.07 65.51 442.28 66.09 442.28 66.8C442.28 67.23 442.19 67.64 442 68.02C441.82 68.4 441.51 68.69 441.09 68.92C440.67 69.14 440.09 69.26 439.36 69.26L438.68 69.26L438.68 71.89L437.09 71.89L437.09 64.5L439.51 64.5ZM439.43 65.77L438.7 65.77L438.7 67.96L439.23 67.96C439.68 67.96 440.04 67.87 440.3 67.7C440.56 67.53 440.69 67.25 440.69 66.84C440.68 66.14 440.26 65.77 439.43 65.77Z" fill="#4D5051" fill-opacity="1.000000" fill-rule="nonzero"/>
		<path id="path" d="M449.71 64.5L447.4 69.73C447.19 70.21 446.96 70.61 446.72 70.95C446.49 71.29 446.18 71.55 445.83 71.73C445.47 71.92 445 72.01 444.4 72.01C444.22 72.01 444.02 72 443.81 71.97C443.6 71.94 443.39 71.9 443.21 71.85L443.21 70.51C443.39 70.57 443.57 70.63 443.77 70.65C443.97 70.68 444.15 70.69 444.34 70.69C444.68 70.69 444.94 70.61 445.09 70.44C445.25 70.27 445.36 70.06 445.46 69.83L442.87 64.52L444.55 64.52L445.95 67.72C446 67.82 446.06 67.96 446.14 68.16C446.22 68.36 446.29 68.51 446.33 68.64C446.37 68.53 446.49 68.36 446.57 68.16C446.64 67.96 446.71 67.78 446.78 67.64L448.07 64.53L449.71 64.5Z" fill="#4D5051" fill-opacity="1.000000" fill-rule="nonzero"/>
		<path id="path" d="M456.74 71.89L454.93 71.89L452.21 68.15L452.21 71.89L450.63 71.89L450.63 64.5L452.21 64.5L452.21 68.15L454.89 64.5L456.58 64.5L453.86 68.04L456.74 71.89Z" fill="#4D5051" fill-opacity="1.000000" fill-rule="nonzero"/>
		<path id="path" d="M460.56 71.89L458.98 71.89L458.98 65.8L456.95 65.8L456.95 64.5L462.59 64.5L462.59 65.8L460.56 65.8L460.56 71.89Z" fill="#4D5051" fill-opacity="1.000000" fill-rule="nonzero"/>
		<path id="path" d="M469.74 64.5L467.44 69.73C467.22 70.21 467 70.61 466.76 70.95C466.53 71.29 466.22 71.55 465.87 71.73C465.51 71.92 465.04 72.01 464.44 72.01C464.26 72.01 464.06 72 463.85 71.97C463.64 71.94 463.43 71.9 463.25 71.85L463.25 70.51C463.43 70.57 463.61 70.63 463.81 70.65C464.01 70.68 464.19 70.69 464.38 70.69C464.72 70.69 464.98 70.61 465.13 70.44C465.29 70.27 465.4 70.06 465.5 69.83L462.91 64.52L464.59 64.52L465.98 67.72C466.04 67.82 466.1 67.96 466.18 68.16C466.26 68.36 466.33 68.51 466.37 68.64C466.41 68.53 466.53 68.36 466.6 68.16C466.68 67.96 466.75 67.78 466.82 67.64L468.11 64.53L469.74 64.5Z" fill="#4D5051" fill-opacity="1.000000" fill-rule="nonzero"/>
		<path id="path" d="M473.07 64.5C474.03 64.5 474.73 64.7 475.18 65.11C475.63 65.51 475.84 66.09 475.84 66.8C475.84 67.23 475.75 67.64 475.56 68.02C475.38 68.4 475.07 68.69 474.65 68.92C474.23 69.14 473.65 69.26 472.92 69.26L472.24 69.26L472.24 71.89L470.66 71.89L470.66 64.5L473.07 64.5ZM472.99 65.77L472.26 65.77L472.26 67.96L472.79 67.96C473.24 67.96 473.6 67.87 473.86 67.7C474.12 67.53 474.26 67.25 474.26 66.84C474.24 66.14 473.83 65.77 472.99 65.77Z" fill="#4D5051" fill-opacity="1.000000" fill-rule="nonzero"/>
		<path id="path" d="M477.26 71.89L477.26 64.5L478.85 64.5L478.85 67.33L479.36 67.33C480.05 67.33 480.62 67.42 481.06 67.61C481.51 67.81 481.84 68.07 482.05 68.41C482.26 68.75 482.38 69.14 482.38 69.57C482.38 70.3 482.15 70.87 481.64 71.28C481.16 71.68 480.38 71.88 479.31 71.88L477.26 71.89ZM478.85 70.6L479.27 70.6C479.73 70.6 480.1 70.52 480.38 70.38C480.64 70.22 480.79 69.96 480.79 69.58C480.79 69.19 480.66 68.93 480.38 68.81C480.1 68.68 479.72 68.63 479.2 68.63L478.86 68.63L478.85 70.6ZM483.28 71.89L483.28 64.5L484.86 64.5L484.86 71.89L483.28 71.89Z" fill="#4D5051" fill-opacity="1.000000" fill-rule="nonzero"/>
	</g>
</svg>
